<?xml version="1.0" encoding="UTF-8" standalone="no"?>
<!DOCTYPE svg PUBLIC "-//W3C//DTD SVG 1.1//EN" "http://www.w3.org/Graphics/SVG/1.1/DTD/svg11.dtd">
<svg xmlns="http://www.w3.org/2000/svg" version="1.1" viewBox="0.00 0.00 1000.00 1000.00">
<g stroke-width="2.00" fill="none" stroke-linecap="butt">
<path stroke="#717171" vector-effect="non-scaling-stroke" d="
  M 638.19 439.45
  Q 638.11 437.15 636.71 428.51
  Q 634.02 411.90 624.87 362.29
  Q 620.37 337.89 615.62 316.05
  Q 612.31 300.80 604.88 272.10
  Q 602.52 262.97 600.02 256.63
  C 597.32 249.81 591.50 237.19 585.45 229.06
  Q 578.00 219.06 567.49 208.84
  Q 559.17 200.75 551.58 196.40
  Q 542.53 191.21 533.07 188.21
  C 528.75 186.84 524.06 186.77 519.34 185.71
  C 509.37 183.46 495.90 183.63 487.25 184.98
  Q 478.62 186.32 475.22 186.75
  Q 468.46 187.62 463.40 189.39
  C 453.72 192.78 444.18 196.75 436.46 202.49
  C 431.80 205.96 426.19 209.51 421.23 213.73
  Q 411.86 221.71 401.83 231.58
  Q 398.81 234.54 396.78 237.55
  C 393.62 242.23 391.75 244.32 387.40 250.39
  Q 385.29 253.33 372.04 272.78
  Q 366.69 280.63 355.31 302.33
  C 354.29 304.27 353.57 307.50 352.34 309.77
  C 344.19 324.74 337.45 340.68 331.26 354.01
  Q 320.04 378.12 313.71 396.13
  Q 312.39 399.90 312.04 400.85
  C 310.25 405.73 305.11 419.10 297.61 438.55
  Q 280.90 481.94 275.10 499.01
  C 273.29 504.33 271.87 507.70 271.00 512.44
  C 269.98 518.06 267.61 522.79 265.66 528.86
  C 256.51 557.49 250.74 574.79 242.80 602.35
  Q 235.18 628.80 231.27 648.52
  Q 229.41 657.90 229.24 661.54
  Q 228.95 667.45 228.93 676.55
  Q 228.91 685.38 230.26 691.46
  Q 234.74 711.63 251.34 724.65
  Q 254.98 727.50 258.05 728.70
  C 264.21 731.09 269.99 733.37 276.57 734.30
  Q 294.59 736.86 312.06 731.32
  C 318.10 729.40 323.49 728.19 329.27 725.51
  Q 341.62 719.80 351.22 713.21
  Q 360.30 706.98 363.99 704.50
  C 372.13 699.02 381.79 691.25 390.64 685.39
  C 394.06 683.14 397.18 679.68 400.80 676.55
  Q 430.74 650.73 440.70 641.69
  Q 445.30 637.51 465.76 618.43
  Q 480.43 604.75 491.02 595.38
  Q 492.16 594.37 516.64 572.42
  C 520.14 569.28 522.08 566.93 525.12 564.75
  Q 529.35 561.71 531.29 560.11
  Q 546.22 547.82 553.94 541.86
  C 561.69 535.88 568.66 529.38 577.26 523.50
  A 0.75 0.75 0.0 0 1 578.41 523.93
  Q 582.49 539.43 587.49 554.83
  Q 592.69 570.87 603.05 599.11
  Q 604.48 603.00 605.01 604.36
  Q 610.68 618.93 616.98 631.98
  Q 620.74 639.76 626.45 648.95
  Q 634.14 661.33 636.91 665.21
  Q 644.56 675.92 645.15 676.80
  Q 648.79 682.20 653.15 686.49
  Q 664.89 698.04 670.51 702.48
  Q 678.86 709.08 687.55 714.34
  Q 711.26 728.66 737.97 727.10
  C 749.90 726.40 762.55 722.33 772.04 714.56
  Q 785.44 703.61 792.43 692.44
  C 795.04 688.27 797.56 684.93 799.33 680.82
  C 808.09 660.50 811.72 638.32 810.93 616.26
  Q 809.92 588.24 803.15 561.00
  Q 797.61 538.69 790.83 521.67
  Q 782.99 501.96 772.16 484.96
  C 770.65 482.60 770.48 480.76 768.04 478.55
  Q 766.26 476.95 761.21 471.00
  Q 757.20 466.28 750.01 460.60
  C 740.82 453.34 729.94 446.74 718.81 442.93
  C 709.12 439.61 698.04 437.04 687.72 437.10
  Q 674.48 437.18 661.88 437.08
  C 653.80 437.01 645.74 437.67 638.92 439.96
  A 0.55 0.55 0.0 0 1 638.19 439.45"
/>
<path stroke="#717171" vector-effect="non-scaling-stroke" d="
  M 563.45 466.82
  A 1.00 0.99 63.5 0 0 563.75 465.91
  Q 562.15 456.97 562.08 447.80
  Q 562.02 440.51 561.18 431.82
  Q 557.28 391.63 555.32 375.38
  Q 552.84 354.76 548.93 330.27
  Q 545.21 307.06 538.95 285.64
  C 534.50 270.41 527.58 255.96 519.80 243.69
  Q 515.40 236.76 506.36 230.46
  A 6.50 6.47 70.3 0 0 504.38 229.52
  L 496.67 227.30
  A 4.45 4.44 -41.1 0 0 494.74 227.17
  Q 486.10 228.45 479.82 233.30
  Q 462.49 246.68 449.08 265.43
  C 445.21 270.84 440.80 275.81 437.79 282.08
  C 433.50 291.03 429.01 298.77 423.51 309.70
  C 422.68 311.35 421.33 313.29 420.50 314.98
  Q 414.16 327.81 408.41 341.55
  C 404.43 351.06 400.55 358.78 397.17 367.94
  C 395.93 371.29 395.70 374.97 394.34 378.22
  Q 388.50 392.12 374.38 433.19
  C 365.90 457.84 362.41 469.21 357.90 482.12
  Q 355.13 490.08 353.22 499.29
  Q 352.01 505.14 345.55 524.24
  Q 343.16 531.31 339.47 544.12
  C 335.71 557.23 331.31 571.11 327.80 585.06
  Q 322.52 606.02 322.40 606.58
  Q 320.55 615.44 320.54 618.75
  C 320.50 627.24 326.31 628.66 332.87 625.34
  Q 343.78 619.82 356.79 609.28
  Q 360.12 606.58 366.22 602.95
  Q 369.57 600.95 383.41 590.13
  C 391.47 583.83 397.83 578.13 405.77 571.52
  Q 409.92 568.07 419.41 561.39
  Q 428.19 555.21 442.42 542.96
  Q 447.39 538.69 465.21 526.02
  Q 466.52 525.09 473.74 520.51
  Q 476.67 518.65 483.20 513.97
  Q 493.50 506.59 512.19 495.29
  C 519.87 490.65 528.54 484.38 537.49 480.27
  Q 545.11 476.77 548.80 474.86
  Q 559.68 469.23 561.79 468.05
  Q 562.63 467.58 563.45 466.82"
/>
<path stroke="#717171" vector-effect="non-scaling-stroke" d="
  M 645.09 484.10
  C 645.98 491.05 646.25 498.56 647.71 505.60
  Q 650.06 516.97 655.37 538.13
  Q 662.76 567.52 673.72 593.90
  C 677.89 603.93 683.81 613.77 688.14 623.71
  Q 689.85 627.63 692.78 632.23
  Q 700.24 643.90 709.76 653.21
  Q 718.18 661.45 728.58 666.39
  C 736.25 670.04 746.02 669.97 751.01 662.13
  Q 753.84 657.70 755.10 652.07
  Q 757.45 641.62 756.79 631.25
  Q 754.74 598.58 743.23 567.50
  Q 741.01 561.52 732.06 541.57
  C 729.90 536.75 728.42 531.90 725.90 527.62
  Q 717.78 513.85 707.29 501.96
  Q 698.60 492.09 687.35 486.14
  C 676.50 480.40 661.76 479.92 650.29 481.85
  Q 647.75 482.28 645.70 483.06
  A 0.98 0.98 0.0 0 0 645.09 484.10"
/>
</g>
<path fill="#e1e1e1" d="
  M 804.76 0.00
  Q 813.94 0.42 819.00 0.91
  C 914.60 10.15 989.16 85.19 999.03 180.25
  Q 999.41 183.93 1000.00 194.99
  L 1000.00 804.90
  Q 999.58 813.86 999.09 819.00
  C 989.96 914.28 914.39 989.97 819.00 999.07
  Q 814.50 999.50 805.01 1000.00
  L 195.10 1000.00
  Q 185.78 999.54 181.00 999.08
  C 85.65 989.88 10.03 914.39 0.93 819.00
  Q 0.51 814.59 0.00 805.01
  L 0.00 195.09
  Q 2.40 125.91 45.28 73.26
  C 81.81 28.41 136.51 1.81 195.00 0.00
  L 804.76 0.00
  Z
  M 638.19 439.45
  Q 638.11 437.15 636.71 428.51
  Q 634.02 411.90 624.87 362.29
  Q 620.37 337.89 615.62 316.05
  Q 612.31 300.80 604.88 272.10
  Q 602.52 262.97 600.02 256.63
  C 597.32 249.81 591.50 237.19 585.45 229.06
  Q 578.00 219.06 567.49 208.84
  Q 559.17 200.75 551.58 196.40
  Q 542.53 191.21 533.07 188.21
  C 528.75 186.84 524.06 186.77 519.34 185.71
  C 509.37 183.46 495.90 183.63 487.25 184.98
  Q 478.62 186.32 475.22 186.75
  Q 468.46 187.62 463.40 189.39
  C 453.72 192.78 444.18 196.75 436.46 202.49
  C 431.80 205.96 426.19 209.51 421.23 213.73
  Q 411.86 221.71 401.83 231.58
  Q 398.81 234.54 396.78 237.55
  C 393.62 242.23 391.75 244.32 387.40 250.39
  Q 385.29 253.33 372.04 272.78
  Q 366.69 280.63 355.31 302.33
  C 354.29 304.27 353.57 307.50 352.34 309.77
  C 344.19 324.74 337.45 340.68 331.26 354.01
  Q 320.04 378.12 313.71 396.13
  Q 312.39 399.90 312.04 400.85
  C 310.25 405.73 305.11 419.10 297.61 438.55
  Q 280.90 481.94 275.10 499.01
  C 273.29 504.33 271.87 507.70 271.00 512.44
  C 269.98 518.06 267.61 522.79 265.66 528.86
  C 256.51 557.49 250.74 574.79 242.80 602.35
  Q 235.18 628.80 231.27 648.52
  Q 229.41 657.90 229.24 661.54
  Q 228.95 667.45 228.93 676.55
  Q 228.91 685.38 230.26 691.46
  Q 234.74 711.63 251.34 724.65
  Q 254.98 727.50 258.05 728.70
  C 264.21 731.09 269.99 733.37 276.57 734.30
  Q 294.59 736.86 312.06 731.32
  C 318.10 729.40 323.49 728.19 329.27 725.51
  Q 341.62 719.80 351.22 713.21
  Q 360.30 706.98 363.99 704.50
  C 372.13 699.02 381.79 691.25 390.64 685.39
  C 394.06 683.14 397.18 679.68 400.80 676.55
  Q 430.74 650.73 440.70 641.69
  Q 445.30 637.51 465.76 618.43
  Q 480.43 604.75 491.02 595.38
  Q 492.16 594.37 516.64 572.42
  C 520.14 569.28 522.08 566.93 525.12 564.75
  Q 529.35 561.71 531.29 560.11
  Q 546.22 547.82 553.94 541.86
  C 561.69 535.88 568.66 529.38 577.26 523.50
  A 0.75 0.75 0.0 0 1 578.41 523.93
  Q 582.49 539.43 587.49 554.83
  Q 592.69 570.87 603.05 599.11
  Q 604.48 603.00 605.01 604.36
  Q 610.68 618.93 616.98 631.98
  Q 620.74 639.76 626.45 648.95
  Q 634.14 661.33 636.91 665.21
  Q 644.56 675.92 645.15 676.80
  Q 648.79 682.20 653.15 686.49
  Q 664.89 698.04 670.51 702.48
  Q 678.86 709.08 687.55 714.34
  Q 711.26 728.66 737.97 727.10
  C 749.90 726.40 762.55 722.33 772.04 714.56
  Q 785.44 703.61 792.43 692.44
  C 795.04 688.27 797.56 684.93 799.33 680.82
  C 808.09 660.50 811.72 638.32 810.93 616.26
  Q 809.92 588.24 803.15 561.00
  Q 797.61 538.69 790.83 521.67
  Q 782.99 501.96 772.16 484.96
  C 770.65 482.60 770.48 480.76 768.04 478.55
  Q 766.26 476.95 761.21 471.00
  Q 757.20 466.28 750.01 460.60
  C 740.82 453.34 729.94 446.74 718.81 442.93
  C 709.12 439.61 698.04 437.04 687.72 437.10
  Q 674.48 437.18 661.88 437.08
  C 653.80 437.01 645.74 437.67 638.92 439.96
  A 0.55 0.55 0.0 0 1 638.19 439.45
  Z"
/>
<path fill="#000000" d="
  M 638.19 439.45
  A 0.55 0.55 0.0 0 0 638.92 439.96
  C 645.74 437.67 653.80 437.01 661.88 437.08
  Q 674.48 437.18 687.72 437.10
  C 698.04 437.04 709.12 439.61 718.81 442.93
  C 729.94 446.74 740.82 453.34 750.01 460.60
  Q 757.20 466.28 761.21 471.00
  Q 766.26 476.95 768.04 478.55
  C 770.48 480.76 770.65 482.60 772.16 484.96
  Q 782.99 501.96 790.83 521.67
  Q 797.61 538.69 803.15 561.00
  Q 809.92 588.24 810.93 616.26
  C 811.72 638.32 808.09 660.50 799.33 680.82
  C 797.56 684.93 795.04 688.27 792.43 692.44
  Q 785.44 703.61 772.04 714.56
  C 762.55 722.33 749.90 726.40 737.97 727.10
  Q 711.26 728.66 687.55 714.34
  Q 678.86 709.08 670.51 702.48
  Q 664.89 698.04 653.15 686.49
  Q 648.79 682.20 645.15 676.80
  Q 644.56 675.92 636.91 665.21
  Q 634.14 661.33 626.45 648.95
  Q 620.74 639.76 616.98 631.98
  Q 610.68 618.93 605.01 604.36
  Q 604.48 603.00 603.05 599.11
  Q 592.69 570.87 587.49 554.83
  Q 582.49 539.43 578.41 523.93
  A 0.75 0.75 0.0 0 0 577.26 523.50
  C 568.66 529.38 561.69 535.88 553.94 541.86
  Q 546.22 547.82 531.29 560.11
  Q 529.35 561.71 525.12 564.75
  C 522.08 566.93 520.14 569.28 516.64 572.42
  Q 492.16 594.37 491.02 595.38
  Q 480.43 604.75 465.76 618.43
  Q 445.30 637.51 440.70 641.69
  Q 430.74 650.73 400.80 676.55
  C 397.18 679.68 394.06 683.14 390.64 685.39
  C 381.79 691.25 372.13 699.02 363.99 704.50
  Q 360.30 706.98 351.22 713.21
  Q 341.62 719.80 329.27 725.51
  C 323.49 728.19 318.10 729.40 312.06 731.32
  Q 294.59 736.86 276.57 734.30
  C 269.99 733.37 264.21 731.09 258.05 728.70
  Q 254.98 727.50 251.34 724.65
  Q 234.74 711.63 230.26 691.46
  Q 228.91 685.38 228.93 676.55
  Q 228.95 667.45 229.24 661.54
  Q 229.41 657.90 231.27 648.52
  Q 235.18 628.80 242.80 602.35
  C 250.74 574.79 256.51 557.49 265.66 528.86
  C 267.61 522.79 269.98 518.06 271.00 512.44
  C 271.87 507.70 273.29 504.33 275.10 499.01
  Q 280.90 481.94 297.61 438.55
  C 305.11 419.10 310.25 405.73 312.04 400.85
  Q 312.39 399.90 313.71 396.13
  Q 320.04 378.12 331.26 354.01
  C 337.45 340.68 344.19 324.74 352.34 309.77
  C 353.57 307.50 354.29 304.27 355.31 302.33
  Q 366.69 280.63 372.04 272.78
  Q 385.29 253.33 387.40 250.39
  C 391.75 244.32 393.62 242.23 396.78 237.55
  Q 398.81 234.54 401.83 231.58
  Q 411.86 221.71 421.23 213.73
  C 426.19 209.51 431.80 205.96 436.46 202.49
  C 444.18 196.75 453.72 192.78 463.40 189.39
  Q 468.46 187.62 475.22 186.75
  Q 478.62 186.32 487.25 184.98
  C 495.90 183.63 509.37 183.46 519.34 185.71
  C 524.06 186.77 528.75 186.84 533.07 188.21
  Q 542.53 191.21 551.58 196.40
  Q 559.17 200.75 567.49 208.84
  Q 578.00 219.06 585.45 229.06
  C 591.50 237.19 597.32 249.81 600.02 256.63
  Q 602.52 262.97 604.88 272.10
  Q 612.31 300.80 615.62 316.05
  Q 620.37 337.89 624.87 362.29
  Q 634.02 411.90 636.71 428.51
  Q 638.11 437.15 638.19 439.45
  Z
  M 563.45 466.82
  A 1.00 0.99 63.5 0 0 563.75 465.91
  Q 562.15 456.97 562.08 447.80
  Q 562.02 440.51 561.18 431.82
  Q 557.28 391.63 555.32 375.38
  Q 552.84 354.76 548.93 330.27
  Q 545.21 307.06 538.95 285.64
  C 534.50 270.41 527.58 255.96 519.80 243.69
  Q 515.40 236.76 506.36 230.46
  A 6.50 6.47 70.3 0 0 504.38 229.52
  L 496.67 227.30
  A 4.45 4.44 -41.1 0 0 494.74 227.17
  Q 486.10 228.45 479.82 233.30
  Q 462.49 246.68 449.08 265.43
  C 445.21 270.84 440.80 275.81 437.79 282.08
  C 433.50 291.03 429.01 298.77 423.51 309.70
  C 422.68 311.35 421.33 313.29 420.50 314.98
  Q 414.16 327.81 408.41 341.55
  C 404.43 351.06 400.55 358.78 397.17 367.94
  C 395.93 371.29 395.70 374.97 394.34 378.22
  Q 388.50 392.12 374.38 433.19
  C 365.90 457.84 362.41 469.21 357.90 482.12
  Q 355.13 490.08 353.22 499.29
  Q 352.01 505.14 345.55 524.24
  Q 343.16 531.31 339.47 544.12
  C 335.71 557.23 331.31 571.11 327.80 585.06
  Q 322.52 606.02 322.40 606.58
  Q 320.55 615.44 320.54 618.75
  C 320.50 627.24 326.31 628.66 332.87 625.34
  Q 343.78 619.82 356.79 609.28
  Q 360.12 606.58 366.22 602.95
  Q 369.57 600.95 383.41 590.13
  C 391.47 583.83 397.83 578.13 405.77 571.52
  Q 409.92 568.07 419.41 561.39
  Q 428.19 555.21 442.42 542.96
  Q 447.39 538.69 465.21 526.02
  Q 466.52 525.09 473.74 520.51
  Q 476.67 518.65 483.20 513.97
  Q 493.50 506.59 512.19 495.29
  C 519.87 490.65 528.54 484.38 537.49 480.27
  Q 545.11 476.77 548.80 474.86
  Q 559.68 469.23 561.79 468.05
  Q 562.63 467.58 563.45 466.82
  Z
  M 645.09 484.10
  C 645.98 491.05 646.25 498.56 647.71 505.60
  Q 650.06 516.97 655.37 538.13
  Q 662.76 567.52 673.72 593.90
  C 677.89 603.93 683.81 613.77 688.14 623.71
  Q 689.85 627.63 692.78 632.23
  Q 700.24 643.90 709.76 653.21
  Q 718.18 661.45 728.58 666.39
  C 736.25 670.04 746.02 669.97 751.01 662.13
  Q 753.84 657.70 755.10 652.07
  Q 757.45 641.62 756.79 631.25
  Q 754.74 598.58 743.23 567.50
  Q 741.01 561.52 732.06 541.57
  C 729.90 536.75 728.42 531.90 725.90 527.62
  Q 717.78 513.85 707.29 501.96
  Q 698.60 492.09 687.35 486.14
  C 676.50 480.40 661.76 479.92 650.29 481.85
  Q 647.75 482.28 645.70 483.06
  A 0.98 0.98 0.0 0 0 645.09 484.10
  Z"
/>
<path fill="#e1e1e1" d="
  M 563.45 466.82
  Q 562.63 467.58 561.79 468.05
  Q 559.68 469.23 548.80 474.86
  Q 545.11 476.77 537.49 480.27
  C 528.54 484.38 519.87 490.65 512.19 495.29
  Q 493.50 506.59 483.20 513.97
  Q 476.67 518.65 473.74 520.51
  Q 466.52 525.09 465.21 526.02
  Q 447.39 538.69 442.42 542.96
  Q 428.19 555.21 419.41 561.39
  Q 409.92 568.07 405.77 571.52
  C 397.83 578.13 391.47 583.83 383.41 590.13
  Q 369.57 600.95 366.22 602.95
  Q 360.12 606.58 356.79 609.28
  Q 343.78 619.82 332.87 625.34
  C 326.31 628.66 320.50 627.24 320.54 618.75
  Q 320.55 615.44 322.40 606.58
  Q 322.52 606.02 327.80 585.06
  C 331.31 571.11 335.71 557.23 339.47 544.12
  Q 343.16 531.31 345.55 524.24
  Q 352.01 505.14 353.22 499.29
  Q 355.13 490.08 357.90 482.12
  C 362.41 469.21 365.90 457.84 374.38 433.19
  Q 388.50 392.12 394.34 378.22
  C 395.70 374.97 395.93 371.29 397.17 367.94
  C 400.55 358.78 404.43 351.06 408.41 341.55
  Q 414.16 327.81 420.50 314.98
  C 421.33 313.29 422.68 311.35 423.51 309.70
  C 429.01 298.77 433.50 291.03 437.79 282.08
  C 440.80 275.81 445.21 270.84 449.08 265.43
  Q 462.49 246.68 479.82 233.30
  Q 486.10 228.45 494.74 227.17
  A 4.45 4.44 -41.1 0 1 496.67 227.30
  L 504.38 229.52
  A 6.50 6.47 70.3 0 1 506.36 230.46
  Q 515.40 236.76 519.80 243.69
  C 527.58 255.96 534.50 270.41 538.95 285.64
  Q 545.21 307.06 548.93 330.27
  Q 552.84 354.76 555.32 375.38
  Q 557.28 391.63 561.18 431.82
  Q 562.02 440.51 562.08 447.80
  Q 562.15 456.97 563.75 465.91
  A 1.00 0.99 63.5 0 1 563.45 466.82
  Z"
/>
<path fill="#e1e1e1" d="
  M 645.09 484.10
  A 0.98 0.98 0.0 0 1 645.70 483.06
  Q 647.75 482.28 650.29 481.85
  C 661.76 479.92 676.50 480.40 687.35 486.14
  Q 698.60 492.09 707.29 501.96
  Q 717.78 513.85 725.90 527.62
  C 728.42 531.90 729.90 536.75 732.06 541.57
  Q 741.01 561.52 743.23 567.50
  Q 754.74 598.58 756.79 631.25
  Q 757.45 641.62 755.10 652.07
  Q 753.84 657.70 751.01 662.13
  C 746.02 669.97 736.25 670.04 728.58 666.39
  Q 718.18 661.45 709.76 653.21
  Q 700.24 643.90 692.78 632.23
  Q 689.85 627.63 688.14 623.71
  C 683.81 613.77 677.89 603.93 673.72 593.90
  Q 662.76 567.52 655.37 538.13
  Q 650.06 516.97 647.71 505.60
  C 646.25 498.56 645.98 491.05 645.09 484.10
  Z"
/>
</svg>
